pedal_clip_forces.mot
version=1
nRows=100
nColumns=4
inDegrees=yes
endheader
time	PedalClip_calcn_r_Fx	PedalClip_calcn_r_Fy	PedalClip_calcn_r_Fz
0.52584349	-64.2249689725434	-129.564508047111	-0
0.52627645	-64.2752688150284	-129.389062277338	-0
0.52674845	-64.3247392313064	-129.214019564755	-0
0.52722044	-64.3733902184408	-129.039463143445	-0
0.52769244	-64.4211630947944	-128.865602798956	-0
0.52816443	-64.4680756180084	-128.692925830675	-0
0.52863643	-64.514219027065	-128.521580037235	-0
0.52910842	-64.5596211081807	-128.351506348034	-0
0.52958041	-64.6043831297482	-128.18276800427	-0
0.53005241	-64.6486307312665	-128.015099893369	-0
0.5305244	-64.6923812876683	-127.848110997509	-0
0.5309964	-64.7356925786396	-127.681710593023	-0
0.53146839	-64.778635073188	-127.515532549746	-0
0.53194039	-64.8211752883516	-127.349210201984	-0
0.53241238	-64.8633307377316	-127.182596790326	-0
0.53288438	-64.905122801822	-127.015411487214	-0
0.53335637	-64.9464634974088	-126.847561076682	-0
0.53377036	-64.9873193755268	-126.679155648133	-0
0.53433326	-65.0276847886699	-126.50999059168	-0
0.53480939	-65.0674678281442	-126.339876025189	-0
0.53545261	-65.1066541482239	-126.168512208044	-0
0.53597696	-65.1452502355048	-125.995356256827	-0
0.53636711	-65.183150458983	-125.820167494726	-0
0.53694568	-65.2203041838991	-125.642877059238	-0
0.53752424	-65.2566872345434	-125.463213635204	-0
0.53798649	-65.2921642345525	-125.281269441766	-0
0.53849114	-65.3266458781736	-125.097259453066	-0
0.53889775	-65.3601020504959	-124.911253273251	-0
0.53930437	-65.3924769724899	-124.723339340357	-0
0.53965261	-65.4235465986795	-124.534275232243	-0
0.54032555	-65.4531034694426	-124.345365948515	-0
0.54099849	-65.481046297894	-124.157695386634	-0
0.54140507	-65.5073249755808	-123.971696974651	-0
0.54186378	-65.5318369135095	-123.787723295777	-0
0.54232249	-65.5545753917105	-123.606094273905	-0
0.54266347	-65.5756169202015	-123.426709888669	-0
0.54319034	-65.5950376680897	-123.249340791357	-0
0.54371721	-65.6128242443468	-123.0739816886	-0
0.54407385	-65.6290273140862	-122.900890264457	-0
0.5445273	-65.6437686318837	-122.729918592887	-0
0.54498074	-65.6571217072261	-122.560857758076	-0
0.54532078	-65.6692488137737	-122.393570374919	-0
0.5458762	-65.6803472424271	-122.227704012624	-0
0.54643162	-65.690489396966	-122.063087989927	-0
0.54681469	-65.6997550862661	-121.899965659775	-0
0.5472678	-65.7082204804132	-121.738206862194	-0
0.54772091	-65.715846911335	-121.577454759499	-0
0.54808385	-65.722635866607	-121.417593436436	-0
0.54857992	-65.7286255797211	-121.258382172525	-0
0.54907598	-65.7338423542432	-121.099310294681	-0
0.54934531	-65.7383416275267	-120.940173714548	-0
0.55005165	-65.7421036904102	-120.78096083301	-0
0.55044693	-65.7450391887374	-120.621770225077	-0
0.55084221	-65.7472319466774	-120.462473576599	-0
0.55099885	-65.7486956521809	-120.302477513075	-0
0.55137983	-65.7493110347729	-120.141877410791	-0
0.55184913	-65.7491368177855	-119.980936546297	-0
0.55231843	-65.7481890004951	-119.819484992487	-0
0.55256475	-65.746362390793	-119.657656204534	-0
0.55307667	-65.7437086187907	-119.495469346304	-0
0.55356892	-65.7402341101999	-119.332384106643	-0
0.55406117	-65.7358336261192	-119.168287763094	-0
0.55438488	-65.7305521541696	-119.002990143245	-0
0.55498377	-65.7243719516729	-118.836133234589	-0
0.55558265	-65.7171631324634	-118.66782405556	-0
0.55597285	-65.7089422589546	-118.498011073524	-0
0.55642308	-65.6996865488196	-118.326245910571	-0
0.5568733	-65.6892761914289	-118.152631296069	-0
0.55724122	-65.6777451761333	-117.977156128196	-0
0.55777569	-65.6650715466919	-117.799679592532	-0
0.55831015	-65.6511407624171	-117.620556065724	-0
0.55865151	-65.6360088414801	-117.440001385774	-0
0.55916138	-65.6197026925969	-117.257797763835	-0
0.55967125	-65.6021382676982	-117.074358883202	-0
0.56004414	-65.5833598757586	-116.890236976772	-0
0.56053711	-65.5633367977742	-116.705685008951	-0
0.56103008	-65.5418967630707	-116.521370376603	-0
0.56136308	-65.5190090183792	-116.338051205805	-0
0.56199294	-65.4948276554421	-116.155696806383	-0
0.56262281	-65.4693848712734	-115.973651137991	-0
0.56301542	-65.4427043301971	-115.791461822648	-0
0.5634862	-65.4148382946344	-115.608890581823	-0
0.56395697	-65.3858205685583	-115.425644487948	-0
0.56431742	-65.35564864799	-115.241532986688	-0
0.56490439	-65.3242763422481	-115.056629107226	-0
0.56549137	-65.2915960077858	-114.871240191773	-0
0.56587288	-65.2576572070732	-114.685623144223	-0
0.56635793	-65.2224625464267	-114.499629940119	-0
0.56684297	-65.1859215742206	-114.313460303685	-0
0.56722309	-65.1481068211661	-114.127296201477	-0
0.56776832	-65.109028247814	-113.940875698684	-0
0.56831355	-65.0685880493109	-113.754284285999	-0
0.56866748	-65.0268536538079	-113.567545821319	-0
0.56921109	-64.9838455491972	-113.380149890948	-0
0.5697547	-64.9394666149841	-113.192059631353	-0
0.57013705	-64.8937657990553	-113.0033203169	-0
0.57066045	-64.8467268407239	-112.813698949603	-0
0.57118385	-64.7982322325817	-112.623294144541	-0
0.57154549	-64.74832886811	-112.432125853163	-0
0.57212252	-64.6970049501918	-112.239841360179	-0
